<?xml version="1.0" encoding="utf-8"?>
<svg viewBox="0 0 540 120" xmlns="http://www.w3.org/2000/svg">
  <path d="M 293.14120610351563 103.49229975585938 Q 291.5473061035156 103.49229975585938 290.2535561035156 102.76779975585937 Q 288.95980610351563 102.04329975585938 288.22495610351564 100.70814975585938 Q 287.49010610351564 99.37299975585938 287.49010610351564 97.61349975585938 Q 287.49010610351564 95.87469975585938 288.2456561035156 94.53954975585938 Q 289.00120610351564 93.20439975585937 290.30530610351565 92.49024975585938 Q 291.60940610351565 91.77609975585938 293.22400610351565 91.77609975585938 Q 294.83860610351564 91.77609975585938 296.14270610351565 92.49024975585938 Q 297.4468061035156 93.20439975585937 298.2023561035156 94.52919975585938 Q 298.9579061035156 95.85399975585938 298.9579061035156 97.61349975585938 Q 298.9579061035156 99.37299975585938 298.18165610351565 100.70814975585938 Q 297.40540610351565 102.04329975585938 296.0806061035156 102.76779975585937 Q 294.7558061035156 103.49229975585938 293.14120610351563 103.49229975585938 Z M 293.14120610351563 101.83629975585937 Q 294.1555061035156 101.83629975585937 295.04560610351564 101.36019975585937 Q 295.9357061035156 100.88409975585938 296.48425610351563 99.93189975585938 Q 297.0328061035156 98.97969975585937 297.0328061035156 97.61349975585938 Q 297.0328061035156 96.24729975585937 296.49460610351565 95.29509975585938 Q 295.95640610351563 94.34289975585938 295.08700610351565 93.87714975585938 Q 294.2176061035156 93.41139975585938 293.2033061035156 93.41139975585938 Q 292.16830610351565 93.41139975585938 291.3092561035156 93.87714975585938 Q 290.4502061035156 94.34289975585938 289.9327061035156 95.29509975585938 Q 289.41520610351563 96.24729975585937 289.41520610351563 97.61349975585938 Q 289.41520610351563 99.00039975585938 289.92235610351565 99.95259975585938 Q 290.4295061035156 100.90479975585937 291.27820610351563 101.37054975585937 Q 292.12690610351564 101.83629975585937 293.14120610351563 101.83629975585937 Z M 306.3878796875 103.49229975585938 Q 304.7939796875 103.49229975585938 303.5002296875 102.76779975585937 Q 302.2064796875 102.04329975585938 301.4716296875 100.70814975585938 Q 300.7367796875 99.37299975585938 300.7367796875 97.61349975585938 Q 300.7367796875 95.87469975585938 301.4923296875 94.53954975585938 Q 302.2478796875 93.20439975585937 303.5519796875 92.49024975585938 Q 304.8560796875 91.77609975585938 306.4706796875 91.77609975585938 Q 308.0852796875 91.77609975585938 309.3893796875 92.49024975585938 Q 310.6934796875 93.20439975585937 311.4490296875 94.52919975585938 Q 312.2045796875 95.85399975585938 312.2045796875 97.61349975585938 Q 312.2045796875 99.37299975585938 311.4283296875 100.70814975585938 Q 310.6520796875 102.04329975585938 309.3272796875 102.76779975585937 Q 308.0024796875 103.49229975585938 306.3878796875 103.49229975585938 Z M 306.3878796875 101.83629975585937 Q 307.4021796875 101.83629975585937 308.2922796875 101.36019975585937 Q 309.1823796875 100.88409975585938 309.7309296875 99.93189975585938 Q 310.2794796875 98.97969975585937 310.2794796875 97.61349975585938 Q 310.2794796875 96.24729975585937 309.7412796875 95.29509975585938 Q 309.2030796875 94.34289975585938 308.3336796875 93.87714975585938 Q 307.4642796875 93.41139975585938 306.4499796875 93.41139975585938 Q 305.4149796875 93.41139975585938 304.5559296875 93.87714975585938 Q 303.6968796875 94.34289975585938 303.1793796875 95.29509975585938 Q 302.6618796875 96.24729975585937 302.6618796875 97.61349975585938 Q 302.6618796875 99.00039975585938 303.16902968750003 99.95259975585938 Q 303.6761796875 100.90479975585937 304.5248796875 101.37054975585937 Q 305.3735796875 101.83629975585937 306.3878796875 101.83629975585937 Z M 328.32852275390627 91.75539975585937 Q 329.65332275390625 91.75539975585937 330.6883227539063 92.30394975585938 Q 331.72332275390625 92.85249975585937 332.32362275390625 93.94959975585937 Q 332.92392275390625 95.04669975585938 332.92392275390625 96.61989975585938 L 332.92392275390625 103.30599975585938 L 331.06092275390625 103.30599975585938 L 331.06092275390625 96.88899975585937 Q 331.06092275390625 95.19159975585937 330.22257275390626 94.29114975585938 Q 329.3842227539063 93.39069975585937 327.95592275390624 93.39069975585937 Q 326.48622275390625 93.39069975585937 325.61682275390626 94.33254975585938 Q 324.7474227539062 95.27439975585938 324.7474227539062 97.05459975585937 L 324.7474227539062 103.30599975585938 L 322.8844227539063 103.30599975585938 L 322.8844227539063 96.88899975585937 Q 322.8844227539063 95.19159975585937 322.04607275390623 94.29114975585938 Q 321.20772275390624 93.39069975585937 319.77942275390626 93.39069975585937 Q 318.30972275390627 93.39069975585937 317.44032275390623 94.33254975585938 Q 316.57092275390625 95.27439975585938 316.57092275390625 97.05459975585937 L 316.57092275390625 103.30599975585938 L 314.68722275390627 103.30599975585938 L 314.68722275390627 91.96239975585938 L 316.57092275390625 91.96239975585938 L 316.57092275390625 93.59769975585938 Q 317.12982275390624 92.70759975585938 318.0716727539062 92.23149975585937 Q 319.0135227539063 91.75539975585937 320.15202275390624 91.75539975585937 Q 321.5803227539063 91.75539975585937 322.6774227539062 92.39709975585937 Q 323.77452275390624 93.03879975585937 324.31272275390626 94.28079975585938 Q 324.78882275390623 93.08019975585938 325.88592275390624 92.41779975585938 Q 326.98302275390625 91.75539975585937 328.32852275390627 91.75539975585937 Z M 336.97897041015625 90.12009975585937 Q 336.44077041015623 90.12009975585937 336.06817041015626 89.74749975585938 Q 335.6955704101562 89.37489975585937 335.6955704101562 88.83669975585937 Q 335.6955704101562 88.29849975585938 336.06817041015626 87.92589975585938 Q 336.44077041015623 87.55329975585937 336.97897041015625 87.55329975585937 Q 337.49647041015623 87.55329975585937 337.85872041015625 87.92589975585938 Q 338.22097041015627 88.29849975585938 338.22097041015627 88.83669975585937 Q 338.22097041015627 89.37489975585937 337.85872041015625 89.74749975585938 Q 337.49647041015623 90.12009975585937 336.97897041015625 90.12009975585937 Z M 337.88977041015625 91.96239975585938 L 337.88977041015625 103.30599975585938 L 336.00607041015627 103.30599975585938 L 336.00607041015627 91.96239975585938 Z M 346.6246452148437 91.75539975585937 Q 348.6946452148438 91.75539975585937 349.97804521484375 93.00774975585938 Q 351.2614452148438 94.26009975585937 351.2614452148438 96.61989975585938 L 351.2614452148438 103.30599975585938 L 349.3984452148438 103.30599975585938 L 349.3984452148438 96.88899975585937 Q 349.3984452148438 95.19159975585937 348.54974521484377 94.29114975585938 Q 347.70104521484376 93.39069975585937 346.23134521484377 93.39069975585937 Q 344.74094521484375 93.39069975585937 343.86119521484375 94.32219975585937 Q 342.98144521484375 95.25369975585937 342.98144521484375 97.03389975585938 L 342.98144521484375 103.30599975585938 L 341.09774521484377 103.30599975585938 L 341.09774521484377 91.96239975585938 L 342.98144521484375 91.96239975585938 L 342.98144521484375 93.57699975585938 Q 343.54034521484374 92.70759975585938 344.50289521484376 92.23149975585937 Q 345.4654452148437 91.75539975585937 346.6246452148437 91.75539975585937 Z M 353.64061879882814 97.59279975585937 Q 353.64061879882814 95.85399975585938 354.34441879882814 94.53954975585938 Q 355.04821879882815 93.22509975585938 356.27986879882815 92.50059975585937 Q 357.51151879882815 91.77609975585938 359.0433187988281 91.77609975585938 Q 360.3681187988281 91.77609975585938 361.50661879882813 92.38674975585937 Q 362.64511879882815 92.99739975585938 363.2454187988281 93.99099975585938 L 363.2454187988281 87.98799975585938 L 365.1498187988281 87.98799975585938 L 365.1498187988281 103.30599975585938 L 363.2454187988281 103.30599975585938 L 363.2454187988281 101.17389975585938 Q 362.6865187988281 102.18819975585937 361.58941879882815 102.84024975585938 Q 360.49231879882814 103.49229975585938 359.02261879882815 103.49229975585938 Q 357.51151879882815 103.49229975585938 356.27986879882815 102.74709975585938 Q 355.04821879882815 102.00189975585937 354.34441879882814 100.65639975585937 Q 353.64061879882814 99.31089975585938 353.64061879882814 97.59279975585937 Z M 363.2454187988281 97.61349975585938 Q 363.2454187988281 96.33009975585938 362.7279187988281 95.37789975585937 Q 362.21041879882813 94.42569975585937 361.3306687988281 93.91854975585937 Q 360.4509187988281 93.41139975585938 359.3952187988281 93.41139975585938 Q 358.3395187988281 93.41139975585938 357.47011879882814 93.90819975585937 Q 356.6007187988281 94.40499975585938 356.0832187988281 95.35719975585937 Q 355.56571879882813 96.30939975585937 355.56571879882813 97.59279975585937 Q 355.56571879882813 98.89689975585938 356.0832187988281 99.85944975585937 Q 356.6007187988281 100.82199975585938 357.47011879882814 101.32914975585938 Q 358.3395187988281 101.83629975585937 359.3952187988281 101.83629975585937 Q 360.4509187988281 101.83629975585937 361.3306687988281 101.32914975585938 Q 362.21041879882813 100.82199975585938 362.7279187988281 99.85944975585937 Q 363.2454187988281 98.89689975585938 363.2454187988281 97.61349975585938 Z" transform="matrix(5.539370059967041, 0, 0, 4.802618026733398, -1493.1409912109375, -392.29412841796875)" style="fill: rgb(233, 233, 233); white-space: pre;"/>
  <path d="M 218.00759594277343 36.16621326049805 Q 218.42456774277343 33.780207960498046 219.83763884277343 31.892252310498044 Q 221.25070994277343 30.004296660498046 223.31240384277345 28.950284610498045 Q 225.37409774277344 27.896272560498048 227.69060774277344 27.896272560498048 Q 230.42408954277343 27.896272560498048 232.19621969277344 29.228265810498044 Q 233.96834984277345 30.560259060498048 234.33899144277345 32.96942946049805 L 230.60941034277343 32.96942946049805 Q 230.23876874277343 31.950165060498044 229.35849494277343 31.417367760498045 Q 228.47822114277344 30.884570460498047 227.18097554277344 30.884570460498047 Q 225.74473934277344 30.884570460498047 224.51698904277345 31.533193260498045 Q 223.28923874277345 32.18181606049805 222.45529514277345 33.38640126049805 Q 221.62135154277343 34.590986460498044 221.34337034277343 36.16621326049805 Q 221.22754484277343 36.722175660498046 221.22754484277343 37.440293760498044 Q 221.22754484277343 39.339831960498046 222.35105219277344 40.41700911049805 Q 223.47455954277345 41.49418626049805 225.44359304277344 41.49418626049805 Q 227.27363594277344 41.49418626049805 228.65195939277345 40.49808696049805 Q 230.03028284277343 39.501987660498045 230.70207074277343 37.74144006049805 L 225.14244674277344 37.74144006049805 L 225.55941854277344 35.28593946049804 L 234.31582634277345 35.28593946049804 L 233.80619414277345 38.11208166049805 Q 233.18073644277342 39.803133960498045 231.86032574277343 41.23937016049805 Q 230.53991504277343 42.675606360498044 228.70987214277343 43.54429761049805 Q 226.87982924277344 44.41298886049805 224.79497024277345 44.41298886049805 Q 222.73327634277345 44.41298886049805 221.16963209277344 43.57904526049805 Q 219.60598784277343 42.745101660498044 218.73729659277345 41.25095271049805 Q 217.86860534277344 39.756803760498045 217.86860534277344 37.78777026049805 Q 217.86860534277344 37.000156860498045 218.00759594277343 36.16621326049805 Z" transform="matrix(4.993750095367432, 0, 0, 4.913095951080322, -1081.60791015625, -110.05873107910156)" style="fill: rgb(255, 87, 51); line-height: 37.0641px; white-space: pre;"/>
</svg>